<?xml version="1.0" standalone="no"?>
<!DOCTYPE svg PUBLIC "-//W3C//DTD SVG 20010904//EN"
 "http://www.w3.org/TR/2001/REC-SVG-20010904/DTD/svg10.dtd">
<svg version="1.0" xmlns="http://www.w3.org/2000/svg"
 width="300.000000pt" height="256.000000pt" viewBox="0 0 300.000000 256.000000"
 preserveAspectRatio="xMidYMid meet">
<metadata>
Created by potrace 1.10, written by Peter Selinger 2001-2011
</metadata>
<g transform="translate(0.000000,256.000000) scale(0.100000,-0.100000)"
fill="#000000" stroke="none">
<path d="M1254 2305 c-15 -23 -15 -27 3 -57 21 -36 85 -78 121 -78 32 0 27 16
-10 29 -65 23 -96 73 -63 101 22 18 18 30 -10 30 -15 0 -31 -9 -41 -25z"/>
<path d="M1605 2179 c-22 -5 -47 -12 -55 -15 -28 -10 10 -21 95 -28 100 -9
136 -20 165 -51 29 -31 43 -32 35 -2 -9 28 -52 75 -87 93 -30 16 -92 17 -153
3z"/>
<path d="M1400 2105 c0 -21 34 -53 64 -61 13 -3 35 0 48 7 23 13 22 13 -15 20
-21 3 -51 16 -68 28 -23 17 -29 19 -29 6z"/>
<path d="M1575 2025 c27 -13 52 -22 55 -19 11 12 -44 44 -74 44 -30 -1 -29 -1
19 -25z"/>
<path d="M1796 2033 c-3 -3 -6 -16 -6 -27 0 -49 -23 -64 -212 -136 -101 -39
-168 -114 -168 -190 0 -17 -5 -30 -12 -30 -7 0 -23 -3 -35 -6 -19 -5 -22 -1
-26 28 l-4 33 -13 -31 c-13 -30 -16 -32 -104 -42 -50 -7 -127 -21 -171 -32
-80 -20 -170 -58 -161 -67 2 -3 44 4 93 16 48 11 142 27 207 36 l119 17 46
-25 c25 -13 60 -27 76 -31 17 -4 39 -9 50 -12 18 -5 18 -3 -3 15 -13 12 -42
26 -63 31 -25 7 -37 15 -33 22 16 26 414 -8 602 -53 99 -23 114 -23 87 -3 -59
45 -275 88 -492 100 -88 4 -133 10 -133 18 1 29 41 96 72 119 19 15 79 49 135
76 122 60 173 102 173 141 0 29 -12 45 -24 33z"/>
<path d="M1670 1974 c-27 -32 -98 -64 -187 -83 -168 -36 -253 -96 -253 -178 0
-36 15 -44 25 -14 8 27 85 96 136 121 23 12 80 35 127 50 86 29 156 70 173
102 12 22 -3 24 -21 2z"/>
<path d="M1509 1545 c17 -20 31 -46 31 -58 1 -19 2 -20 10 -5 13 22 -2 61 -32
82 -38 27 -42 18 -9 -19z"/>
<path d="M860 1493 c0 -25 41 -118 185 -418 37 -77 81 -174 97 -215 17 -41 37
-83 45 -92 26 -30 145 -49 298 -49 145 0 166 2 248 28 58 18 70 39 68 115 -2
68 13 102 64 147 25 22 56 73 102 166 55 114 67 133 77 119 16 -21 51 -14 49
10 0 9 2 15 5 12 3 -4 16 3 28 15 31 29 105 37 138 15 87 -57 -7 -212 -152
-251 -147 -39 -190 -56 -230 -91 -51 -44 -72 -81 -72 -129 0 -80 63 -131 151
-123 26 3 60 13 76 24 l28 19 -56 6 c-62 7 -92 23 -120 66 -28 42 -24 71 19
113 33 33 46 39 132 54 270 50 404 213 283 347 -83 92 -213 85 -274 -15 -10
-17 -19 -25 -19 -18 0 7 16 35 35 63 31 46 45 89 29 89 -3 0 -17 -9 -31 -20
-35 -27 -138 -58 -253 -75 -112 -17 -527 -20 -635 -5 -106 16 -195 40 -250 69
-66 34 -65 34 -65 24z m671 -295 c23 -40 68 -118 100 -173 32 -55 61 -108 65
-117 6 -17 -8 -18 -210 -18 -161 0 -216 3 -216 12 0 17 201 368 211 368 4 0
27 -33 50 -72z"/>
<path d="M1437 1168 c-14 -24 -24 -44 -23 -46 2 -1 15 2 30 7 21 9 26 17 26
46 0 19 -2 35 -4 35 -2 0 -15 -19 -29 -42z"/>
<path d="M1490 1175 c0 -29 5 -37 26 -46 15 -5 28 -8 30 -6 6 6 -40 87 -48 87
-5 0 -8 -16 -8 -35z"/>
<path d="M1419 1092 c-23 -21 -31 -37 -32 -65 -1 -43 29 -90 62 -95 20 -3 21
0 21 92 0 56 -4 96 -10 96 -5 0 -24 -12 -41 -28z"/>
<path d="M1490 1025 c0 -87 2 -95 19 -95 11 0 31 14 46 32 36 42 30 102 -12
135 -48 39 -53 33 -53 -72z"/>
<path d="M1321 969 l-32 -59 71 0 72 0 -31 35 c-17 20 -31 44 -31 55 0 38 -17
27 -49 -31z"/>
<path d="M1595 998 c-4 -18 -21 -45 -37 -60 l-30 -28 71 0 c39 0 71 2 71 5 0
7 -61 115 -65 115 -2 0 -7 -14 -10 -32z"/>
<path d="M930 1491 c26 -15 147 -41 232 -51 110 -13 530 -12 643 0 95 11 258
51 237 58 -7 2 -81 -4 -165 -15 -204 -24 -594 -25 -789 0 -157 19 -181 21
-158 8z"/>
<path d="M965 1045 c-5 -2 -46 -11 -90 -21 -227 -51 -385 -148 -385 -237 0
-63 45 -111 155 -165 169 -83 414 -128 745 -139 476 -14 917 77 1044 217 30
34 36 47 36 85 0 37 -6 52 -34 82 -43 48 -128 94 -238 128 -72 23 -98 26 -144
20 -67 -8 -61 -16 26 -39 143 -38 250 -108 267 -174 20 -83 -119 -178 -332
-228 -275 -63 -689 -71 -980 -18 -264 48 -441 152 -418 245 17 70 153 150 326
191 74 17 97 26 95 38 -3 14 -49 24 -73 15z"/>
<path d="M1015 938 c-78 -14 -185 -48 -237 -74 -27 -14 -48 -26 -48 -27 0 -2
30 7 68 19 37 12 118 31 180 41 85 14 112 21 110 32 -4 19 -14 20 -73 9z"/>
<path d="M1900 927 c0 -11 14 -18 48 -22 47 -6 219 -47 257 -60 18 -7 18 -6
-1 9 -30 22 -195 76 -255 83 -40 5 -49 3 -49 -10z"/>
<path d="M1144 766 c-10 -26 2 -44 45 -66 78 -39 164 -52 321 -47 157 4 254
26 298 67 25 23 26 29 12 50 -9 13 -12 13 -20 -2 -11 -19 -76 -41 -168 -59
-81 -15 -297 -6 -377 16 -33 9 -70 25 -82 37 -20 19 -23 19 -29 4z"/>
<path d="M860 519 c19 -13 64 -44 100 -69 50 -37 84 -52 150 -68 261 -65 488
-64 745 1 72 19 103 33 155 71 36 26 78 55 93 63 16 8 27 17 24 19 -12 13 -90
-20 -154 -65 -73 -51 -116 -67 -263 -93 -107 -18 -373 -16 -485 5 -134 25
-152 32 -240 91 -49 33 -96 57 -120 60 l-40 7 35 -22z"/>
</g>
</svg>
